<svg xmlns="http://www.w3.org/2000/svg" width="1400" height="1080" viewBox="0 0 1400 1080"><style>text{font-family:Arial,sans-serif;fill:#233d50}.title{font-size:22px;font-weight:600}.small{font-size:15px}</style><rect width="1400" height="1080" fill="#f3f6f8"/><text x="25" y="38" class="title">Luzern · SBB Konstanz border geometry review</text><text x="25" y="64" class="small">Teal: publisher curve · orange: GTFS station attachments · red: original timetable stop</text><rect x="10" y="85" width="680" height="430" rx="8" fill="white" stroke="#d6e0e8"/><text x="25" y="114" class="title">Kreuzlingen → Konstanz</text><polyline points="222.38,428.24 240.20,432.73 243.90,433.91 247.59,435.10 251.29,436.28 254.98,437.47 258.67,438.65 262.37,439.84 266.06,441.02 269.76,442.21 273.45,443.39 277.15,444.58 280.84,445.76 284.53,446.95 288.23,448.13 291.92,449.32 295.62,450.50 299.31,451.69 303.01,452.87 306.70,454.06 310.39,455.24 314.09,456.43 317.78,457.61 321.48,458.80 325.17,459.98 328.87,461.17 332.57,462.33 336.29,463.44 340.03,464.46 343.80,465.35 347.61,466.09 351.44,466.68 355.30,467.11 359.17,467.38 363.04,467.50 366.92,467.46 370.80,467.26 374.66,466.91 378.50,466.40 382.33,465.74 386.12,464.92 389.87,463.95 393.59,462.83 397.25,461.56 400.86,460.15 404.42,458.58 407.90,456.88 411.32,455.03 414.66,453.06 417.91,450.94 421.08,448.70 424.16,446.34 427.14,443.85 430.02,441.24 432.80,438.52 435.46,435.70 438.01,432.76 440.44,429.73 442.75,426.60 444.93,423.39 446.98,420.08 448.89,416.70 450.67,413.25 452.32,409.72 453.82,406.13 455.17,402.49 456.38,398.79 457.44,395.05 458.33,391.26 459.04,387.44 459.57,383.59 459.93,379.71 460.10,375.83 460.10,371.94 459.93,368.05 459.67,364.17 459.64,363.79 459.34,359.92 459.05,356.04 458.76,352.16 458.51,348.27 458.38,344.39 458.39,340.50 458.52,336.61 458.77,332.73 459.04,328.84 459.30,324.96 459.57,321.08 459.83,317.20 460.10,313.32 460.36,309.44 460.63,305.56 460.89,301.67 461.16,297.79 461.46,293.91 461.88,290.05 462.44,286.20 463.10,282.36 463.79,278.54 464.48,274.71 465.17,270.88 465.86,267.05 466.55,263.22 467.23,259.39 467.92,255.56 468.61,251.73 469.30,247.90 469.99,244.08 470.68,240.25 471.36,236.42 472.05,232.59 472.74,228.76 473.43,224.93 474.12,221.10 474.81,217.27 475.49,213.45 476.18,209.62 476.87,205.79 477.41,202.79 477.62,172.50" fill="none" stroke="#087f88" stroke-width="3"/><polyline points="222.38,428.24 240.20,432.73" fill="none" stroke="#ce7614" stroke-width="3"/><polyline points="477.41,202.79 477.62,172.50" fill="none" stroke="#ce7614" stroke-width="3"/><circle cx="222.3839445817692" cy="428.2406752668879" r="4" fill="#b53435"/><text x="231.3839445817692" y="419.2406752668879" class="small">START</text><circle cx="477.6160554182692" cy="172.5000000001537" r="4" fill="#b53435"/><text x="486.6160554182692" y="163.5000000001537" class="small">END</text><text x="25" y="495" class="small">Full 1,284 m path · KR → KRGR → KODB · all source vertices retained</text><rect x="710" y="85" width="680" height="430" rx="8" fill="white" stroke="#d6e0e8"/><text x="725" y="114" class="title">Konstanz → Kreuzlingen</text><polyline points="1177.60,172.50 1177.40,202.79 1176.86,205.79 1176.17,209.62 1175.48,213.45 1174.79,217.27 1174.10,221.10 1173.42,224.93 1172.73,228.76 1172.04,232.59 1171.35,236.42 1170.66,240.25 1169.97,244.08 1169.29,247.90 1168.60,251.73 1167.91,255.56 1167.22,259.39 1166.53,263.22 1165.84,267.05 1165.16,270.88 1164.47,274.71 1163.78,278.54 1163.09,282.36 1162.42,286.20 1161.87,290.05 1161.44,293.91 1161.14,297.79 1160.88,301.67 1160.61,305.56 1160.35,309.44 1160.08,313.32 1159.82,317.20 1159.56,321.08 1159.29,324.96 1159.03,328.84 1158.76,332.73 1158.51,336.61 1158.38,340.50 1158.37,344.39 1158.49,348.27 1158.75,352.16 1159.04,356.04 1159.33,359.92 1159.63,363.79 1159.65,364.17 1159.92,368.05 1160.09,371.94 1160.09,375.83 1159.92,379.71 1159.56,383.59 1159.03,387.44 1158.31,391.26 1157.43,395.05 1156.37,398.79 1155.16,402.49 1153.80,406.13 1152.30,409.72 1150.66,413.25 1148.88,416.70 1146.97,420.08 1144.92,423.39 1142.74,426.60 1140.43,429.73 1138.00,432.76 1135.45,435.70 1132.79,438.52 1130.02,441.24 1127.14,443.85 1124.15,446.34 1121.08,448.70 1117.91,450.94 1114.65,453.06 1111.31,455.03 1107.90,456.88 1104.41,458.58 1100.86,460.15 1097.25,461.56 1093.58,462.83 1089.87,463.95 1086.11,464.92 1082.32,465.74 1078.50,466.40 1074.66,466.91 1070.79,467.26 1066.92,467.46 1063.04,467.50 1059.17,467.38 1055.30,467.11 1051.44,466.68 1047.61,466.09 1043.80,465.35 1040.03,464.46 1036.29,463.44 1032.57,462.33 1028.87,461.17 1025.17,459.98 1021.48,458.80 1017.79,457.61 1014.09,456.43 1010.40,455.24 1006.71,454.06 1003.01,452.87 999.32,451.69 995.62,450.50 991.93,449.32 988.24,448.13 984.54,446.95 980.85,445.76 977.15,444.58 973.46,443.39 969.77,442.21 966.07,441.02 962.38,439.84 958.68,438.65 954.99,437.47 951.30,436.28 947.60,435.10 943.91,433.91 940.21,432.73 922.40,428.24" fill="none" stroke="#087f88" stroke-width="3"/><polyline points="1177.60,172.50 1177.40,202.79" fill="none" stroke="#ce7614" stroke-width="3"/><polyline points="940.21,432.73 922.40,428.24" fill="none" stroke="#ce7614" stroke-width="3"/><circle cx="1177.6016079773485" cy="172.5000000001537" r="4" fill="#b53435"/><text x="1186.6016079773485" y="163.5000000001537" class="small">START</text><circle cx="922.39839202269" cy="428.2406752668879" r="4" fill="#b53435"/><text x="931.39839202269" y="419.2406752668879" class="small">END</text><text x="725" y="495" class="small">Reverse direction independently rebuilt · KODB → KRGR → KR</text><rect x="10" y="530" width="680" height="430" rx="8" fill="white" stroke="#d6e0e8"/><text x="25" y="559" class="title">Kreuzlingen · GTFS platform 2</text><polyline points="65.00,681.60 297.53,740.15 345.74,755.62 393.95,771.08 442.16,786.55 490.37,802.01 538.58,817.47 586.79,832.94 635.00,848.40" fill="none" stroke="#087f88" stroke-width="3"/><polyline points="65.00,681.60 297.53,740.15" fill="none" stroke="#ce7614" stroke-width="3"/><circle cx="65.00000000025074" cy="681.5973990452705" r="4" fill="#b53435"/><text x="74.00000000025074" y="672.5973990452705" class="small">GTFS</text><circle cx="297.52688144080855" cy="740.1532913265079" r="4" fill="#b53435"/><text x="306.52688144080855" y="731.1532913265079" class="small">SBB endpoint</text><text x="25" y="940" class="small">47.3 m station connector · original GTFS platform retained</text><rect x="710" y="530" width="680" height="430" rx="8" fill="white" stroke="#d6e0e8"/><text x="725" y="559" class="title">Konstanz · original GTFS stop</text><polyline points="1037.22,912.50 1040.83,892.42 1044.44,872.35 1048.05,852.27 1051.66,832.20 1055.26,812.12 1058.87,792.05 1061.70,776.30 1062.78,617.50" fill="none" stroke="#087f88" stroke-width="3"/><polyline points="1061.70,776.30 1062.78,617.50" fill="none" stroke="#ce7614" stroke-width="3"/><circle cx="1062.7800520866278" cy="617.5" r="4" fill="#b53435"/><text x="1071.7800520866278" y="608.5" class="small">GTFS</text><circle cx="1061.7033442643312" cy="776.3047907747796" r="4" fill="#b53435"/><text x="1070.7033442643312" y="767.3047907747796" class="small">SBB endpoint</text><text x="725" y="940" class="small">77.9 m station connector · original GTFS stop retained</text><text x="25" y="1010" class="small">SBB Infrastructure / data.sbb.ch · terms_by · catalogue modified 2026-07-29 · data processed 2026-09-02</text><text x="25" y="1035" class="small">Retrieved 2026-09-08 · timetable: SBB / opentransportdata.swiss · no individual feature survey date established</text><text x="25" y="1060" class="small">Graphical station alignments and bounded connectors; no basemap, platform-track or signalling certification.</text></svg>
